<svg xmlns="http://www.w3.org/2000/svg" xmlns:xlink="http://www.w3.org/1999/xlink" viewBox="0 0 521.01 521.01"><defs><clipPath id="a"><polygon points="0 525.01 521.01 526.01 521.01 5 0 4 0 525.01" fill="none"/></clipPath></defs><title>logo</title><g clip-path="url(#a)"><path d="M140.53,296.4a6,6,0,0,1-2.81,2.22,17.57,17.57,0,0,1-5.92.73h-1.64V287.8h4c2.64,0,4.57.48,5.73,1.43a4.62,4.62,0,0,1,1.69,3.82,5.7,5.7,0,0,1-1,3.35m-10.37,8.31h1.61a35,35,0,0,1,7,.48,8.37,8.37,0,0,1,4.48,2.53,6.14,6.14,0,0,1,1.58,4.23,6.3,6.3,0,0,1-1.12,3.59,6.81,6.81,0,0,1-3,2.46,17.58,17.58,0,0,1-6.21.8h-4.32Zm16.33-1.22a13.83,13.83,0,0,0-3.76-2.15,9.9,9.9,0,0,0,2.91-3.08A10,10,0,0,0,147,293a10.19,10.19,0,0,0-1.59-5.57,9.66,9.66,0,0,0-4.35-3.73,19.38,19.38,0,0,0-7.61-1.19h-8.58v41.5h11.7c4.12,0,7.47-1.19,9.94-3.53a11.51,11.51,0,0,0,3.75-8.66,11.07,11.07,0,0,0-1-4.69,10.59,10.59,0,0,0-2.8-3.69" fill="#222221"/><path d="M191.72,303.27a17.6,17.6,0,0,1-2,8.44,15.31,15.31,0,0,1-13.55,8.13,14.58,14.58,0,0,1-10.89-4.73,16.28,16.28,0,0,1-4.53-11.64,17.56,17.56,0,0,1,2-8.46,15.79,15.79,0,0,1,5.69-6,14.53,14.53,0,0,1,7.69-2.23A15,15,0,0,1,184,289a15.57,15.57,0,0,1,5.73,5.95,17.13,17.13,0,0,1,2,8.33M176,281.54a19.53,19.53,0,0,0-10.29,2.9,20.59,20.59,0,0,0-7.49,8,23,23,0,0,0-2.74,11,21.42,21.42,0,0,0,6,15.26,19.78,19.78,0,0,0,14.81,6.31A19.53,19.53,0,0,0,191,318.7a22.79,22.79,0,0,0,0-30.87,20,20,0,0,0-15-6.3" fill="#222221"/><path d="M226.72,307.46a30,30,0,0,1-.38,6.11,8.91,8.91,0,0,1-1.68,3.38,7.84,7.84,0,0,1-2.82,2.18,9.08,9.08,0,0,1-7.83-.23,7.58,7.58,0,0,1-3.1-2.46,8.34,8.34,0,0,1-1.29-3.7,51.53,51.53,0,0,1-.16-5.28V282.55h-5.33v24.91c0,4.19.25,7,.77,8.66a11.86,11.86,0,0,0,4.91,6.5,15.32,15.32,0,0,0,8.7,2.43,12.71,12.71,0,0,0,8-2.6,12.55,12.55,0,0,0,4.43-6.1,30.22,30.22,0,0,0,1.08-8.9V282.55h-5.33Z" fill="#222221"/></g><rect x="240.5" y="282.55" width="5.33" height="41.5" fill="#222221"/><polygon points="259.5 282.55 254.17 282.55 254.17 324.05 274.97 324.05 274.97 318.86 259.5 318.86 259.5 282.55" fill="#222221"/><polygon points="285.8 282.55 280.46 282.55 280.46 324.05 301.26 324.05 301.26 318.86 285.8 318.86 285.8 282.55" fill="#222221"/><g clip-path="url(#a)"><path d="M339.06,294.93a17.13,17.13,0,0,1,2,8.33,17.6,17.6,0,0,1-2,8.44,15.31,15.31,0,0,1-13.55,8.13,14.59,14.59,0,0,1-10.89-4.73,16.28,16.28,0,0,1-4.53-11.64,17.56,17.56,0,0,1,2-8.46,15.79,15.79,0,0,1,5.69-6,14.53,14.53,0,0,1,7.69-2.23,15,15,0,0,1,7.82,2.23,15.57,15.57,0,0,1,5.73,5.95m-13.72-13.4a19.53,19.53,0,0,0-10.29,2.9,20.59,20.59,0,0,0-7.49,8,23,23,0,0,0-2.74,11,21.42,21.42,0,0,0,6,15.26,19.78,19.78,0,0,0,14.81,6.31,19.53,19.53,0,0,0,14.7-6.35,22.79,22.79,0,0,0,0-30.87,20,20,0,0,0-15-6.3" fill="#222221"/></g><polygon points="381.02 282.55 381.02 312.25 355.23 282.55 353.4 282.55 353.4 324.05 358.87 324.05 358.87 294.72 384.44 324.05 386.3 324.05 386.3 282.55 381.02 282.55" fill="#222221"/><g clip-path="url(#a)"><path d="M191,373.84v-6.27h3.25a7.89,7.89,0,0,1,2.71.33,2.77,2.77,0,0,1,1.33,1.08,3.06,3.06,0,0,1,.5,1.69,3.12,3.12,0,0,1-.5,1.72,2.75,2.75,0,0,1-1.38,1.12,7.76,7.76,0,0,1-2.73.36Zm7,1.21a4.44,4.44,0,0,0,2-1.73,5,5,0,0,0,.7-2.65,4.62,4.62,0,0,0-1-3A4.74,4.74,0,0,0,197,366a22.29,22.29,0,0,0-4.16-.26h-3.67V384.2H191v-8.56h1l6.63,8.56h2.28l-6.63-8.56a9.27,9.27,0,0,0,3.64-.59" fill="#9c9b9b"/><path d="M216.17,368.17a8.2,8.2,0,0,1,4.09-1.06,8.45,8.45,0,0,1,3.7.81,8,8,0,0,1,2.9,2.37l1.45-1.11a9.18,9.18,0,0,0-3.41-2.86,10.52,10.52,0,0,0-4.67-1,9.78,9.78,0,0,0-7.11,2.77,9.13,9.13,0,0,0-2.84,6.81,9.74,9.74,0,0,0,2.35,6.57,9.57,9.57,0,0,0,7.63,3.22,10.76,10.76,0,0,0,4.61-1A9.3,9.3,0,0,0,228.3,381l-1.45-1.1a8.23,8.23,0,0,1-6.49,3,8,8,0,0,1-5.83-2.26,7.54,7.54,0,0,1-2.31-5.63,7.93,7.93,0,0,1,1-4,7.65,7.65,0,0,1,2.92-2.84" fill="#9c9b9b"/></g><polygon points="249.72 373.5 240.34 373.5 240.34 365.76 238.49 365.76 238.49 384.2 240.34 384.2 240.34 375.31 249.72 375.31 249.72 384.2 251.57 384.2 251.57 365.76 249.72 365.76 249.72 373.5" fill="#9c9b9b"/><rect x="262.29" y="365.76" width="1.85" height="18.43" fill="#9c9b9b"/><polygon points="273.02 367.57 277.13 367.57 277.13 384.2 279.01 384.2 279.01 367.57 283.12 367.57 283.12 365.76 273.02 365.76 273.02 367.57" fill="#9c9b9b"/><polygon points="302.8 382.4 294.15 382.4 294.15 375.15 302.8 375.15 302.8 373.35 294.15 373.35 294.15 367.56 302.87 367.56 302.87 365.76 292.31 365.76 292.31 384.2 302.8 384.2 302.8 382.4" fill="#9c9b9b"/><g clip-path="url(#a)"><path d="M317.59,368.17a8.2,8.2,0,0,1,4.09-1.06,8.45,8.45,0,0,1,3.7.81,8,8,0,0,1,2.9,2.37l1.45-1.11a9.18,9.18,0,0,0-3.41-2.86,10.52,10.52,0,0,0-4.67-1,9.78,9.78,0,0,0-7.11,2.77,9.13,9.13,0,0,0-2.84,6.81,9.74,9.74,0,0,0,2.35,6.57,9.57,9.57,0,0,0,7.63,3.22,10.76,10.76,0,0,0,4.61-1,9.3,9.3,0,0,0,3.45-2.71l-1.45-1.1a8.23,8.23,0,0,1-6.48,3,8,8,0,0,1-5.84-2.26,7.54,7.54,0,0,1-2.31-5.63,7.93,7.93,0,0,1,1-4,7.65,7.65,0,0,1,2.92-2.84" fill="#9c9b9b"/></g><polygon points="348.22 365.76 338.11 365.76 338.11 367.57 342.22 367.57 342.22 384.2 344.1 384.2 344.1 367.57 348.22 367.57 348.22 365.76" fill="#9c9b9b"/><polygon points="367.9 382.4 359.25 382.4 359.25 375.15 367.9 375.15 367.9 373.35 359.25 373.35 359.25 367.56 367.97 367.56 367.97 365.76 357.41 365.76 357.41 384.2 367.9 384.2 367.9 382.4" fill="#9c9b9b"/><g clip-path="url(#a)"><path d="M385,383.18a4.71,4.71,0,0,0,1.53-3.48,5,5,0,0,0-.9-2.77,13.28,13.28,0,0,0-3.28-3.15c-1.34-1-2.14-1.61-2.39-1.84a4.48,4.48,0,0,1-.91-1.23,2.85,2.85,0,0,1-.25-1.16,2.26,2.26,0,0,1,.7-1.67,2.57,2.57,0,0,1,1.83-.68,3.07,3.07,0,0,1,1.6.44,7.41,7.41,0,0,1,1.77,1.82l1.5-1.14a8.54,8.54,0,0,0-2.39-2.38,4.87,4.87,0,0,0-2.44-.64,4.72,4.72,0,0,0-2.28.57,4.18,4.18,0,0,0-1.63,1.56,4.27,4.27,0,0,0-.58,2.19,4.63,4.63,0,0,0,1,2.82,16.45,16.45,0,0,0,2.87,2.51,14.74,14.74,0,0,1,3.16,3,3.11,3.11,0,0,1,.63,1.82,3.06,3.06,0,0,1-.43,1.54,3,3,0,0,1-1.24,1.15,3.6,3.6,0,0,1-1.74.44c-1.45,0-2.72-1-3.83-3.05l-1.56.94a8.28,8.28,0,0,0,2.51,3,5.48,5.48,0,0,0,3.05.9,5.11,5.11,0,0,0,3.7-1.48" fill="#9c9b9b"/><path d="M308,401.41a4.41,4.41,0,0,1-1.69,1.75,4.64,4.64,0,0,1-2.37.61,3.5,3.5,0,0,1-3.69-3.71,4.71,4.71,0,0,1,1.37-3.43,4.47,4.47,0,0,1,3.31-1.4,3.65,3.65,0,0,1,2.67,1,3.57,3.57,0,0,1,1,2.65,5.21,5.21,0,0,1-.62,2.5m.89-5.16a4.41,4.41,0,0,0-1.66-1.71A4.57,4.57,0,0,0,305,394a5.75,5.75,0,0,0-4.21,1.79,5.87,5.87,0,0,0-1.79,4.3,4.83,4.83,0,0,0,1.37,3.56,4.77,4.77,0,0,0,3.51,1.37,5.66,5.66,0,0,0,4.16-1.85l-.2,1.58h1.35l1.43-10.49h-1.4Z" fill="#9c9b9b"/><path d="M317.09,395.26a2.55,2.55,0,0,1,2.1,1.26l.73-1.09a4.06,4.06,0,0,0-1.3-1.12,3.06,3.06,0,0,0-1.43-.32,3.15,3.15,0,0,0-2.22.81,2.64,2.64,0,0,0-.88,2,2.25,2.25,0,0,0,.41,1.33,7,7,0,0,0,1.74,1.51,8.25,8.25,0,0,1,1.51,1.18,1.79,1.79,0,0,1,.43,1.12,1.7,1.7,0,0,1-.58,1.27,1.91,1.91,0,0,1-1.36.55,3.3,3.3,0,0,1-2.54-1.42l-.81,1a4,4,0,0,0,3.28,1.73,3.37,3.37,0,0,0,2.39-.87,2.9,2.9,0,0,0,.92-2.19,3.07,3.07,0,0,0-.48-1.68,7,7,0,0,0-2-1.7,5.62,5.62,0,0,1-1.33-1.05,1.3,1.3,0,0,1-.3-.81,1.33,1.33,0,0,1,.49-1,1.66,1.66,0,0,1,1.19-.46" fill="#9c9b9b"/><path d="M326.12,395.26a2.55,2.55,0,0,1,2.1,1.26l.73-1.09a4.06,4.06,0,0,0-1.3-1.12,3.06,3.06,0,0,0-1.43-.32,3.15,3.15,0,0,0-2.22.81,2.64,2.64,0,0,0-.88,2,2.25,2.25,0,0,0,.41,1.33,7.2,7.2,0,0,0,1.74,1.51,8.25,8.25,0,0,1,1.51,1.18,1.79,1.79,0,0,1,.43,1.12,1.7,1.7,0,0,1-.58,1.27,1.91,1.91,0,0,1-1.36.55,3.29,3.29,0,0,1-2.54-1.42l-.81,1a4,4,0,0,0,3.27,1.73,3.37,3.37,0,0,0,2.4-.87,2.9,2.9,0,0,0,.92-2.19,3.07,3.07,0,0,0-.48-1.68,7,7,0,0,0-2-1.7,5.62,5.62,0,0,1-1.33-1.05,1.3,1.3,0,0,1-.3-.81,1.33,1.33,0,0,1,.49-1,1.66,1.66,0,0,1,1.19-.46" fill="#9c9b9b"/><path d="M340.76,401.42a4.3,4.3,0,0,1-3.93,2.35,3.55,3.55,0,0,1-2.65-1,3.69,3.69,0,0,1-1-2.7,5,5,0,0,1,.59-2.41,4.27,4.27,0,0,1,1.7-1.72,4.7,4.7,0,0,1,2.36-.63,3.67,3.67,0,0,1,1.82.47,3.23,3.23,0,0,1,1.28,1.32,3.91,3.91,0,0,1,.46,1.93,5.13,5.13,0,0,1-.6,2.44m-.46-6.79a4.84,4.84,0,0,0-2.46-.64,5.95,5.95,0,0,0-5.22,3,6.23,6.23,0,0,0-.8,3.1,4.78,4.78,0,0,0,1.36,3.52,4.66,4.66,0,0,0,3.47,1.39,6,6,0,0,0,3.06-.78,5.67,5.67,0,0,0,2.15-2.18,6.13,6.13,0,0,0,.8-3.06,5.29,5.29,0,0,0-.63-2.59,4.55,4.55,0,0,0-1.75-1.78" fill="#9c9b9b"/><path d="M349.94,395.9a5.27,5.27,0,0,1,2.53-.62,3.9,3.9,0,0,1,3.56,1.89l1.11-.64a4.58,4.58,0,0,0-1.86-1.87,5.81,5.81,0,0,0-2.81-.67,6.16,6.16,0,0,0-4.48,1.78,5.74,5.74,0,0,0-1.83,4.29,4.83,4.83,0,0,0,1.39,3.61,5.33,5.33,0,0,0,3.88,1.35,7.19,7.19,0,0,0,2.83-.52,6.71,6.71,0,0,0,2.26-1.66l-1.11-.79a4.42,4.42,0,0,1-1.72,1.24,5.77,5.77,0,0,1-2.32.48,4.22,4.22,0,0,1-2.06-.48A3.3,3.3,0,0,1,348,402a4.09,4.09,0,0,1-.48-2,4.57,4.57,0,0,1,.65-2.35,4.5,4.5,0,0,1,1.79-1.72" fill="#9c9b9b"/><path d="M362.37,389.94a1,1,0,0,0-.77.32,1.08,1.08,0,0,0,1.53,1.53,1.07,1.07,0,0,0,0-1.53,1,1,0,0,0-.76-.32" fill="#9c9b9b"/></g><polygon points="361.31 394.26 359.88 404.75 361.21 404.75 362.58 394.26 361.31 394.26" fill="#9c9b9b"/><g clip-path="url(#a)"><path d="M367.19,398.59a4.8,4.8,0,0,1,1.7-2.43,4.6,4.6,0,0,1,2.78-.89,3.31,3.31,0,0,1,3.41,3.32Zm4.53-4.61a6.16,6.16,0,0,0-6.1,6.07,5.3,5.3,0,0,0,1.24,3.44,4.49,4.49,0,0,0,3.71,1.53,6,6,0,0,0,2.65-.58,5.39,5.39,0,0,0,2-1.55l-1-.82a4.16,4.16,0,0,1-1.56,1.27,4.67,4.67,0,0,1-2,.46,3.51,3.51,0,0,1-2.68-1.07,4.05,4.05,0,0,1-1-2.94h9.35a8.1,8.1,0,0,0,.07-.94,4.83,4.83,0,0,0-1.33-3.48,4.46,4.46,0,0,0-3.34-1.36" fill="#9c9b9b"/></g><polygon points="373.39 389.34 370.87 392.31 372.2 392.31 375.47 389.34 373.39 389.34" fill="#9c9b9b"/><g clip-path="url(#a)"><path d="M383.14,395.26a2.55,2.55,0,0,1,2.1,1.26l.73-1.09a4.06,4.06,0,0,0-1.3-1.12,3.06,3.06,0,0,0-1.43-.32,3.15,3.15,0,0,0-2.22.81,2.64,2.64,0,0,0-.88,2,2.25,2.25,0,0,0,.41,1.33,7,7,0,0,0,1.74,1.51,8.25,8.25,0,0,1,1.51,1.18,1.79,1.79,0,0,1,.43,1.12,1.7,1.7,0,0,1-.58,1.27,1.91,1.91,0,0,1-1.36.55,3.29,3.29,0,0,1-2.54-1.42l-.81,1a4,4,0,0,0,3.27,1.73,3.37,3.37,0,0,0,2.4-.87,2.9,2.9,0,0,0,.92-2.19,3.07,3.07,0,0,0-.48-1.68,7,7,0,0,0-2-1.7,5.62,5.62,0,0,1-1.33-1.05,1.3,1.3,0,0,1-.3-.81,1.33,1.33,0,0,1,.49-1,1.66,1.66,0,0,1,1.19-.46" fill="#9c9b9b"/><path d="M159.13,359.63l0,.06,0-.06m-36.85,59.09h0Zm.37,9H106.29a6.48,6.48,0,0,1-6.48-6.47V123.14a6.49,6.49,0,0,1,6.48-6.48H350.68v9.21H109V418.5h13.34l28.34-62.63a5.1,5.1,0,0,1,4.64-3h0a5.14,5.14,0,0,1,4.67,3l27.55,61.9H401.34V183.35h9.22V420.51a6.48,6.48,0,0,1-6.47,6.47h-217a8.45,8.45,0,0,1-7.69-5l-24.06-54L130.68,422.5a8.81,8.81,0,0,1-8,5.21" fill="#efd247"/><path d="M435.21,104.1v57.53a2.8,2.8,0,0,1-2.8,2.8H374.89a2.8,2.8,0,0,1-2.8-2.8V104.1a2.8,2.8,0,0,1,2.8-2.8h57.53a2.8,2.8,0,0,1,2.8,2.8" fill="#efd247"/></g></svg>